<mxfile host="app.diagrams.net" agent="Mozilla/5.0 (Windows NT 10.0; Win64; x64) AppleWebKit/537.36 (KHTML, like Gecko) Chrome/136.0.0.0 Safari/537.36 Edg/136.0.0.0" version="27.0.3">
  <diagram name="Trang-1" id="3IrerYaBVsaQ2rAt5a1I">
    <mxGraphModel dx="1227" dy="606" grid="1" gridSize="10" guides="1" tooltips="1" connect="1" arrows="1" fold="1" page="1" pageScale="1" pageWidth="827" pageHeight="1169" math="0" shadow="0">
      <root>
        <mxCell id="0" />
        <mxCell id="1" parent="0" />
        <mxCell id="rsEzLFNR1dHdFFPHPDr5-5" style="edgeStyle=orthogonalEdgeStyle;rounded=0;orthogonalLoop=1;jettySize=auto;html=1;entryX=0;entryY=0.5;entryDx=0;entryDy=0;" edge="1" parent="1" source="rsEzLFNR1dHdFFPHPDr5-1" target="rsEzLFNR1dHdFFPHPDr5-3">
          <mxGeometry relative="1" as="geometry">
            <Array as="points">
              <mxPoint x="200" y="301" />
              <mxPoint x="200" y="191" />
            </Array>
          </mxGeometry>
        </mxCell>
        <mxCell id="rsEzLFNR1dHdFFPHPDr5-1" value="" style="shape=umlActor;html=1;" vertex="1" parent="1">
          <mxGeometry x="80" y="246" width="60" height="110" as="geometry" />
        </mxCell>
        <mxCell id="rsEzLFNR1dHdFFPHPDr5-2" value="Customer" style="text;html=1;align=center;verticalAlign=middle;resizable=0;points=[];autosize=1;strokeColor=none;fillColor=none;" vertex="1" parent="1">
          <mxGeometry x="70" y="366" width="80" height="30" as="geometry" />
        </mxCell>
        <mxCell id="rsEzLFNR1dHdFFPHPDr5-8" style="edgeStyle=orthogonalEdgeStyle;rounded=0;orthogonalLoop=1;jettySize=auto;html=1;" edge="1" parent="1" source="rsEzLFNR1dHdFFPHPDr5-9" target="rsEzLFNR1dHdFFPHPDr5-4">
          <mxGeometry relative="1" as="geometry" />
        </mxCell>
        <mxCell id="rsEzLFNR1dHdFFPHPDr5-3" value="System" style="ellipse;whiteSpace=wrap;html=1;" vertex="1" parent="1">
          <mxGeometry x="370" y="156" width="114" height="70" as="geometry" />
        </mxCell>
        <mxCell id="rsEzLFNR1dHdFFPHPDr5-12" style="edgeStyle=orthogonalEdgeStyle;rounded=0;orthogonalLoop=1;jettySize=auto;html=1;entryX=0.5;entryY=1;entryDx=0;entryDy=0;" edge="1" parent="1" source="rsEzLFNR1dHdFFPHPDr5-4" target="rsEzLFNR1dHdFFPHPDr5-3">
          <mxGeometry relative="1" as="geometry" />
        </mxCell>
        <mxCell id="rsEzLFNR1dHdFFPHPDr5-4" value="Database" style="shape=cylinder;whiteSpace=wrap;html=1;" vertex="1" parent="1">
          <mxGeometry x="580" y="396" width="120" height="80" as="geometry" />
        </mxCell>
        <mxCell id="rsEzLFNR1dHdFFPHPDr5-6" value="1" style="text;html=1;align=center;verticalAlign=middle;resizable=0;points=[];autosize=1;strokeColor=none;fillColor=none;" vertex="1" parent="1">
          <mxGeometry x="120" y="286" width="30" height="30" as="geometry" />
        </mxCell>
        <mxCell id="rsEzLFNR1dHdFFPHPDr5-7" value="Yêu cầu tra cứu" style="text;html=1;align=center;verticalAlign=middle;resizable=0;points=[];autosize=1;strokeColor=none;fillColor=none;" vertex="1" parent="1">
          <mxGeometry x="210" y="166" width="110" height="30" as="geometry" />
        </mxCell>
        <mxCell id="rsEzLFNR1dHdFFPHPDr5-10" value="" style="edgeStyle=orthogonalEdgeStyle;rounded=0;orthogonalLoop=1;jettySize=auto;html=1;" edge="1" parent="1" source="rsEzLFNR1dHdFFPHPDr5-3" target="rsEzLFNR1dHdFFPHPDr5-9">
          <mxGeometry relative="1" as="geometry">
            <mxPoint x="474" y="196" as="sourcePoint" />
            <mxPoint x="630" y="286" as="targetPoint" />
          </mxGeometry>
        </mxCell>
        <mxCell id="rsEzLFNR1dHdFFPHPDr5-9" value="2" style="text;html=1;align=center;verticalAlign=middle;resizable=0;points=[];autosize=1;strokeColor=none;fillColor=none;" vertex="1" parent="1">
          <mxGeometry x="474" y="176" width="30" height="30" as="geometry" />
        </mxCell>
        <mxCell id="rsEzLFNR1dHdFFPHPDr5-11" value="Truy vấn đơn hàng" style="text;html=1;align=center;verticalAlign=middle;resizable=0;points=[];autosize=1;strokeColor=none;fillColor=none;" vertex="1" parent="1">
          <mxGeometry x="504" y="156" width="120" height="30" as="geometry" />
        </mxCell>
        <mxCell id="rsEzLFNR1dHdFFPHPDr5-13" value="3" style="text;html=1;align=center;verticalAlign=middle;resizable=0;points=[];autosize=1;strokeColor=none;fillColor=none;" vertex="1" parent="1">
          <mxGeometry x="540" y="406" width="30" height="30" as="geometry" />
        </mxCell>
        <mxCell id="rsEzLFNR1dHdFFPHPDr5-14" value="Trả dữ liệu" style="text;html=1;align=center;verticalAlign=middle;resizable=0;points=[];autosize=1;strokeColor=none;fillColor=none;" vertex="1" parent="1">
          <mxGeometry x="424" y="406" width="80" height="30" as="geometry" />
        </mxCell>
        <mxCell id="rsEzLFNR1dHdFFPHPDr5-15" style="edgeStyle=orthogonalEdgeStyle;rounded=0;orthogonalLoop=1;jettySize=auto;html=1;entryX=0.667;entryY=0;entryDx=0;entryDy=0;entryPerimeter=0;" edge="1" parent="1" source="rsEzLFNR1dHdFFPHPDr5-3" target="rsEzLFNR1dHdFFPHPDr5-1">
          <mxGeometry relative="1" as="geometry">
            <Array as="points">
              <mxPoint x="427" y="136" />
              <mxPoint x="120" y="136" />
            </Array>
          </mxGeometry>
        </mxCell>
        <mxCell id="rsEzLFNR1dHdFFPHPDr5-16" value="4" style="text;html=1;align=center;verticalAlign=middle;resizable=0;points=[];autosize=1;strokeColor=none;fillColor=none;" vertex="1" parent="1">
          <mxGeometry x="140" y="114" width="30" height="30" as="geometry" />
        </mxCell>
        <mxCell id="rsEzLFNR1dHdFFPHPDr5-17" value="Hiển thị" style="text;html=1;align=center;verticalAlign=middle;resizable=0;points=[];autosize=1;strokeColor=none;fillColor=none;" vertex="1" parent="1">
          <mxGeometry x="200" y="106" width="60" height="30" as="geometry" />
        </mxCell>
      </root>
    </mxGraphModel>
  </diagram>
</mxfile>
